<svg width="50" height="50" viewBox="0 0 50 50" fill="none" xmlns="http://www.w3.org/2000/svg">
<path opacity="0.8" d="M47.5 25C47.5 27.9547 46.918 30.8806 45.7873 33.6104C44.6566 36.3402 42.9992 38.8206 40.9099 40.9099C38.8206 42.9992 36.3402 44.6566 33.6104 45.7873C30.8806 46.918 27.9547 47.5 25 47.5C22.0453 47.5 19.1194 46.918 16.3896 45.7873C13.6598 44.6566 11.1794 42.9992 9.0901 40.9099C7.00078 38.8206 5.34344 36.3402 4.21271 33.6104C3.08198 30.8805 2.5 27.9547 2.5 25C2.5 22.0453 3.08198 19.1194 4.21271 16.3896C5.34344 13.6598 7.00078 11.1794 9.0901 9.0901C11.1794 7.00078 13.6598 5.34344 16.3896 4.21271C19.1195 3.08198 22.0453 2.5 25 2.5C27.9547 2.5 30.8806 3.08198 33.6104 4.21271C36.3402 5.34344 38.8206 7.00078 40.9099 9.0901C42.9992 11.1794 44.6566 13.6598 45.7873 16.3896C46.918 19.1195 47.5 22.0453 47.5 25L47.5 25Z" stroke-width="5" stroke-linecap="round" stroke-linejoin="round" />
</svg>
